<svg width="594" height="52" viewBox="0 0 594 52" fill="none" xmlns="http://www.w3.org/2000/svg">
<path d="M18.2878 51.12H-0.000156164V0.719992H18.2158C28.7278 0.719992 37.1518 5.83199 37.1518 24.768C37.1518 43.56 28.7998 51.12 18.2878 51.12ZM9.93584 41.76H17.4238C23.5438 41.76 27.2158 36.288 27.2158 24.696C27.2158 13.104 23.5438 10.08 17.3518 10.08H9.93584V41.76ZM40.0611 25.92C40.0611 8.06399 49.9251 -7.62939e-06 62.2371 -7.62939e-06C74.5491 -7.62939e-06 84.4131 8.06399 84.4131 25.92C84.4131 43.776 74.5491 51.84 62.2371 51.84C49.9251 51.84 40.0611 43.776 40.0611 25.92ZM49.9971 25.92C49.9971 36.504 55.4691 41.544 62.2371 41.544C69.0051 41.544 74.4771 36.504 74.4771 25.92C74.4771 15.336 69.0051 10.296 62.2371 10.296C55.4691 10.296 49.9971 15.336 49.9971 25.92ZM97.9671 27.792V51.12H88.0311V0.719992H97.9671L111.791 26.064C112.943 28.152 114.167 31.104 114.743 33.408L115.391 33.192C114.815 30.888 114.527 27.792 114.527 25.416V0.719992H124.463V51.12H114.527L101.351 26.928C99.8391 24.12 98.2551 20.232 97.4631 17.136L96.7431 17.352C97.5351 20.448 97.9671 24.624 97.9671 27.792ZM130.54 5.54399C130.54 2.30399 132.412 0.431991 135.724 0.431991C139.036 0.431991 140.908 2.59199 140.908 6.55199C140.908 15.12 134.572 20.448 128.812 20.448V17.568C131.692 17.568 134.428 15.552 135.868 10.8C132.412 10.8 130.54 8.99999 130.54 5.54399ZM143.755 10.08V0.719992H174.427V10.08H164.059V51.12H154.123V10.08H143.755ZM438.716 10.08V0.719992H469.388V10.08H459.02V51.12H449.084V10.08H438.716ZM483.983 0.719992V21.24H500.543V0.719992H510.479V51.12H500.543V30.6H483.983V51.12H474.047V0.719992H483.983ZM515.672 51.12V0.719992H538.424V10.08H525.608V21.24H536.264V30.6H525.608V41.76H538.424V51.12H515.672ZM552.819 42.264V51.12H542.883V0.719992H552.819L568.155 43.776L583.419 0.719992H593.355V51.12H583.419V42.264C583.419 33.264 584.067 26.64 585.579 17.784L584.859 17.712C583.347 26.568 580.827 32.832 577.803 41.328L574.275 51.12H561.963L558.435 41.328C555.411 32.832 553.467 26.568 551.955 17.712L551.235 17.784C552.747 26.64 552.819 33.264 552.819 42.264Z" fill="black"/>
<path d="M196.031 51.12V0.719992H226.631V10.08H205.967V21.24H224.471V30.6H205.967V51.12H196.031ZM230.256 25.92C230.256 8.06399 240.12 -7.62939e-06 252.432 -7.62939e-06C264.744 -7.62939e-06 274.608 8.06399 274.608 25.92C274.608 43.776 264.744 51.84 252.432 51.84C240.12 51.84 230.256 43.776 230.256 25.92ZM240.192 25.92C240.192 36.504 245.664 41.544 252.432 41.544C259.2 41.544 264.672 36.504 264.672 25.92C264.672 15.336 259.2 10.296 252.432 10.296C245.664 10.296 240.192 15.336 240.192 25.92ZM296.73 26.784C307.89 26.784 309.402 30.528 309.402 36.216C309.402 39.384 309.258 42.12 313.002 42.12H315.018V51.12H309.834C303.858 51.12 298.314 48.816 298.962 36.72C299.25 31.536 296.082 30.96 292.41 30.96H288.162V51.12H278.226V0.719992H295.506C305.37 0.719992 313.218 3.52799 313.218 13.176C313.218 21.6 307.314 25.92 296.73 26.064V26.784ZM288.162 21.6H294.426C299.97 21.6 303.282 19.656 303.282 15.84C303.282 11.952 299.97 10.08 294.282 10.08H288.162V21.6ZM338.051 41.544C343.163 41.544 347.267 37.512 347.771 31.752H332.147V22.392H357.779V51.12H349.283V36.648H348.563C348.563 42.984 344.099 51.84 334.667 51.84C325.667 51.84 316.811 43.776 316.811 25.92C316.811 8.06399 326.027 -7.62939e-06 338.123 -7.62939e-06C348.059 -7.62939e-06 356.483 4.82399 355.331 18.864H344.819C344.819 13.68 342.947 10.296 338.123 10.296C331.571 10.296 326.747 15.336 326.747 25.92C326.747 36.504 332.291 41.544 338.051 41.544ZM361.406 51.12V0.719992H384.158V10.08H371.342V21.24H381.998V30.6H371.342V41.76H384.158V51.12H361.406ZM387.88 10.08V0.719992H418.552V10.08H408.184V51.12H398.248V10.08H387.88Z" fill="#AF34CE"/>
</svg>
