<svg width="135" height="52" viewBox="0 0 135 52" fill="none" xmlns="http://www.w3.org/2000/svg">
<path d="M-358.84 51.12V0.719992H-328.24V10.08H-348.904V21.24H-330.4V30.6H-348.904V51.12H-358.84ZM-315.183 0.719992V51.12H-325.119V0.719992H-315.183ZM-302.133 0.719992V41.76H-283.557V51.12H-312.069V0.719992H-302.133ZM-271.998 0.719992V41.76H-253.422V51.12H-281.934V0.719992H-271.998ZM-251.799 51.12V0.719992H-229.047V10.08H-241.863V21.24H-231.207V30.6H-241.863V41.76H-229.047V51.12H-251.799ZM-207.524 51.12H-225.812V0.719992H-207.596C-197.084 0.719992 -188.66 5.83199 -188.66 24.768C-188.66 43.56 -197.012 51.12 -207.524 51.12ZM-215.876 41.76H-208.388C-202.268 41.76 -198.596 36.288 -198.596 24.696C-198.596 13.104 -202.268 10.08 -208.46 10.08H-215.876V41.76ZM-139.327 19.08L-144.727 51.12H-158.695L-170.935 0.719992H-160.567L-152.431 41.256H-151.711L-143.575 0.719992H-134.647L-125.791 41.256H-125.071L-117.655 0.719992H-107.287L-118.807 51.12H-132.775L-138.607 19.08H-139.327ZM-94.6025 0.719992V51.12H-104.538V0.719992H-94.6025ZM-92.929 10.08V0.719992H-62.257V10.08H-72.625V51.12H-82.561V10.08H-92.929ZM-48.8864 0.719992V21.24H-32.3264V0.719992H-22.3904V51.12H-32.3264V30.6H-48.8864V51.12H-58.8224V0.719992H-48.8864Z" fill="black"/>
<path d="M8.14996 0.719992V41.76H26.726V51.12H-1.78604V0.719992H8.14996ZM24.7465 25.92C24.7465 8.06399 34.6105 -7.62939e-06 46.9225 -7.62939e-06C59.2345 -7.62939e-06 69.0985 8.06399 69.0985 25.92C69.0985 43.776 59.2345 51.84 46.9225 51.84C34.6105 51.84 24.7465 43.776 24.7465 25.92ZM34.6825 25.92C34.6825 36.504 40.1545 41.544 46.9225 41.544C53.6905 41.544 59.1625 36.504 59.1625 25.92C59.1625 15.336 53.6905 10.296 46.9225 10.296C40.1545 10.296 34.6825 15.336 34.6825 25.92ZM82.3966 51.12L67.9966 0.719992H78.3646L88.6606 41.256H89.3806L98.9566 0.719992H109.325L95.6446 51.12H82.3966ZM112.104 51.12V0.719992H134.856V10.08H122.04V21.24H132.696V30.6H122.04V41.76H134.856V51.12H112.104Z" fill="#AF34CE"/>
</svg>
