<svg width="896" height="100" viewBox="0 0 896 100" fill="none" xmlns="http://www.w3.org/2000/svg">
<path d="M147 55.5L150.76 41.5H154.32L158.08 55.5H155.32L154.7 52.9H150.38L149.76 55.5H147ZM152.3 45.06L151 50.3H154.08L152.78 45.06C152.68 44.68 152.68 44.3 152.64 43.92H152.44C152.4 44.3 152.4 44.68 152.3 45.06ZM163.492 55.5H158.412V41.5H163.292C166.372 41.5 168.332 42.68 168.332 45.02C168.332 46.72 167.172 47.96 165.832 47.96V48.16C167.172 48.16 168.732 48.66 168.732 51.18C168.732 54.26 166.412 55.5 163.492 55.5ZM161.172 52.9H163.252C164.952 52.9 165.972 52.3 165.972 51.2C165.972 50.08 164.952 49.1 163.232 49.1H161.172V52.9ZM161.172 47.3H163.012C165.072 47.3 165.572 46.42 165.572 45.5C165.572 44.58 164.612 44.1 162.992 44.1H161.172V47.3ZM169.2 48.5C169.2 43.54 171.94 41.3 175.36 41.3C178.78 41.3 181.52 43.54 181.52 48.5C181.52 53.46 178.78 55.7 175.36 55.7C171.94 55.7 169.2 53.46 169.2 48.5ZM171.96 48.5C171.96 51.44 173.48 52.84 175.36 52.84C177.24 52.84 178.76 51.44 178.76 48.5C178.76 45.56 177.24 44.16 175.36 44.16C173.48 44.16 171.96 45.56 171.96 48.5ZM187.129 55.7C184.169 55.7 182.049 54.34 182.049 50.3V41.5H184.809V50.3C184.809 52.3 185.929 52.84 187.009 52.84C188.089 52.84 189.209 52.3 189.209 50.3V41.5H191.969V50.3C191.969 54.34 189.849 55.7 187.129 55.7ZM192.422 44.1V41.5H200.942V44.1H198.062V55.5H195.302V44.1H192.422Z" fill="black"/>
<path d="M359.34 52.84C361.08 52.84 361.7 51.68 361.78 50.28H364.38C364.46 53.6 362.16 55.7 359.18 55.7C355.88 55.7 353.3 53.12 353.42 48.28C353.54 43.32 355.94 41.3 359.3 41.3C361.82 41.3 364.72 43.1 364.46 46.88H361.78C361.72 44.98 360.46 44.16 359.3 44.16C357.48 44.16 356.3 45.34 356.18 48.28C356.06 51.1 357.22 52.84 359.34 52.84ZM364.935 48.5C364.935 43.54 367.675 41.3 371.095 41.3C374.515 41.3 377.255 43.54 377.255 48.5C377.255 53.46 374.515 55.7 371.095 55.7C367.675 55.7 364.935 53.46 364.935 48.5ZM367.695 48.5C367.695 51.44 369.215 52.84 371.095 52.84C372.975 52.84 374.495 51.44 374.495 48.5C374.495 45.56 372.975 44.16 371.095 44.16C369.215 44.16 367.695 45.56 367.695 48.5ZM380.68 49.02V55.5H377.92V41.5H380.68L384.52 48.54C384.84 49.12 385.18 49.94 385.34 50.58L385.52 50.52C385.36 49.88 385.28 49.02 385.28 48.36V41.5H388.04V55.5H385.28L381.62 48.78C381.2 48 380.76 46.92 380.54 46.06L380.34 46.12C380.56 46.98 380.68 48.14 380.68 49.02ZM388.508 44.1V41.5H397.028V44.1H394.148V55.5H391.388V44.1H388.508ZM395.077 55.5L398.837 41.5H402.397L406.157 55.5H403.397L402.777 52.9H398.457L397.837 55.5H395.077ZM400.377 45.06L399.077 50.3H402.157L400.857 45.06C400.757 44.68 400.757 44.3 400.717 43.92H400.517C400.477 44.3 400.477 44.68 400.377 45.06ZM411.585 52.84C413.325 52.84 413.945 51.68 414.025 50.28H416.625C416.705 53.6 414.405 55.7 411.425 55.7C408.125 55.7 405.545 53.12 405.665 48.28C405.785 43.32 408.185 41.3 411.545 41.3C414.065 41.3 416.965 43.1 416.705 46.88H414.025C413.965 44.98 412.705 44.16 411.545 44.16C409.725 44.16 408.545 45.34 408.425 48.28C408.305 51.1 409.465 52.84 411.585 52.84ZM416.98 44.1V41.5H425.5V44.1H422.62V55.5H419.86V44.1H416.98Z" fill="black"/>
</svg>
