<svg width="500" height="38" viewBox="0 0 500 38" fill="none" xmlns="http://www.w3.org/2000/svg">
<path d="M5.04 7V15.55H11.94V7H16.08V28H11.94V19.45H5.04V28H0.9V7H5.04ZM17.0822 17.5C17.0822 10.06 21.1922 6.7 26.3222 6.7C31.4522 6.7 35.5622 10.06 35.5622 17.5C35.5622 24.94 31.4522 28.3 26.3222 28.3C21.1922 28.3 17.0822 24.94 17.0822 17.5ZM21.2222 17.5C21.2222 21.91 23.5022 24.01 26.3222 24.01C29.1422 24.01 31.4222 21.91 31.4222 17.5C31.4222 13.09 29.1422 10.99 26.3222 10.99C23.5022 10.99 21.2222 13.09 21.2222 17.5ZM40.6997 24.31V28H36.5597V7H40.6997L47.0897 24.94L53.4497 7H57.5897V28H53.4497V24.31C53.4497 20.56 53.7197 17.8 54.3497 14.11L54.0497 14.08C53.4197 17.77 52.3697 20.38 51.1097 23.92L49.6397 28H44.5097L43.0397 23.92C41.7797 20.38 40.9697 17.77 40.3397 14.08L40.0397 14.11C40.6697 17.8 40.6997 20.56 40.6997 24.31ZM59.2235 28V7H68.7035V10.9H63.3635V15.55H67.8035V19.45H63.3635V24.1H68.7035V28H59.2235Z" fill="#AF34CE"/>
<path d="M221 24.5L224.76 10.5H228.32L232.08 24.5H229.32L228.7 21.9H224.38L223.76 24.5H221ZM226.3 14.06L225 19.3H228.08L226.78 14.06C226.68 13.68 226.68 13.3 226.64 12.92H226.44C226.4 13.3 226.4 13.68 226.3 14.06ZM237.492 24.5H232.412V10.5H237.292C240.372 10.5 242.332 11.68 242.332 14.02C242.332 15.72 241.172 16.96 239.832 16.96V17.16C241.172 17.16 242.732 17.66 242.732 20.18C242.732 23.26 240.412 24.5 237.492 24.5ZM235.172 21.9H237.252C238.952 21.9 239.972 21.3 239.972 20.2C239.972 19.08 238.952 18.1 237.232 18.1H235.172V21.9ZM235.172 16.3H237.012C239.072 16.3 239.572 15.42 239.572 14.5C239.572 13.58 238.612 13.1 236.992 13.1H235.172V16.3ZM243.2 17.5C243.2 12.54 245.94 10.3 249.36 10.3C252.78 10.3 255.52 12.54 255.52 17.5C255.52 22.46 252.78 24.7 249.36 24.7C245.94 24.7 243.2 22.46 243.2 17.5ZM245.96 17.5C245.96 20.44 247.48 21.84 249.36 21.84C251.24 21.84 252.76 20.44 252.76 17.5C252.76 14.56 251.24 13.16 249.36 13.16C247.48 13.16 245.96 14.56 245.96 17.5ZM261.129 24.7C258.169 24.7 256.049 23.34 256.049 19.3V10.5H258.809V19.3C258.809 21.3 259.929 21.84 261.009 21.84C262.089 21.84 263.209 21.3 263.209 19.3V10.5H265.969V19.3C265.969 23.34 263.849 24.7 261.129 24.7ZM266.422 13.1V10.5H274.942V13.1H272.062V24.5H269.302V13.1H266.422Z" fill="black"/>
<path d="M433.34 21.84C435.08 21.84 435.7 20.68 435.78 19.28H438.38C438.46 22.6 436.16 24.7 433.18 24.7C429.88 24.7 427.3 22.12 427.42 17.28C427.54 12.32 429.94 10.3 433.3 10.3C435.82 10.3 438.72 12.1 438.46 15.88H435.78C435.72 13.98 434.46 13.16 433.3 13.16C431.48 13.16 430.3 14.34 430.18 17.28C430.06 20.1 431.22 21.84 433.34 21.84ZM438.935 17.5C438.935 12.54 441.675 10.3 445.095 10.3C448.515 10.3 451.255 12.54 451.255 17.5C451.255 22.46 448.515 24.7 445.095 24.7C441.675 24.7 438.935 22.46 438.935 17.5ZM441.695 17.5C441.695 20.44 443.215 21.84 445.095 21.84C446.975 21.84 448.495 20.44 448.495 17.5C448.495 14.56 446.975 13.16 445.095 13.16C443.215 13.16 441.695 14.56 441.695 17.5ZM454.68 18.02V24.5H451.92V10.5H454.68L458.52 17.54C458.84 18.12 459.18 18.94 459.34 19.58L459.52 19.52C459.36 18.88 459.28 18.02 459.28 17.36V10.5H462.04V24.5H459.28L455.62 17.78C455.2 17 454.76 15.92 454.54 15.06L454.34 15.12C454.56 15.98 454.68 17.14 454.68 18.02ZM462.508 13.1V10.5H471.028V13.1H468.148V24.5H465.388V13.1H462.508ZM469.077 24.5L472.837 10.5H476.397L480.157 24.5H477.397L476.777 21.9H472.457L471.837 24.5H469.077ZM474.377 14.06L473.077 19.3H476.157L474.857 14.06C474.757 13.68 474.757 13.3 474.717 12.92H474.517C474.477 13.3 474.477 13.68 474.377 14.06ZM485.585 21.84C487.325 21.84 487.945 20.68 488.025 19.28H490.625C490.705 22.6 488.405 24.7 485.425 24.7C482.125 24.7 479.545 22.12 479.665 17.28C479.785 12.32 482.185 10.3 485.545 10.3C488.065 10.3 490.965 12.1 490.705 15.88H488.025C487.965 13.98 486.705 13.16 485.545 13.16C483.725 13.16 482.545 14.34 482.425 17.28C482.305 20.1 483.465 21.84 485.585 21.84ZM490.98 13.1V10.5H499.5V13.1H496.62V24.5H493.86V13.1H490.98Z" fill="black"/>
</svg>
