<svg width="198" height="10" viewBox="0 0 198 10" fill="none" xmlns="http://www.w3.org/2000/svg">
<path opacity="0.2" fill-rule="evenodd" clip-rule="evenodd" d="M10.4214 5C10.4214 3.67392 12.0683 2.40215 14.9998 1.46447C17.9312 0.526784 21.9072 0 26.0529 0H182.368C186.514 3.95203e-08 190.49 0.526784 193.421 1.46447C196.353 2.40215 198 3.67392 198 5C198 6.32608 196.353 7.59785 193.421 8.53553C190.49 9.47322 186.514 10 182.368 10H26.0529C21.9072 10 17.9312 9.47322 14.9998 8.53553C12.0683 7.59785 10.4214 6.32608 10.4214 5Z" fill="black"/>
<path fill-rule="evenodd" clip-rule="evenodd" d="M0 1.66667C0 1.22464 0.548963 0.800715 1.52612 0.488154C2.50328 0.175593 3.8286 0 5.21051 0H192.789C194.171 0 195.496 0.175593 196.473 0.488154C197.45 0.800715 197.999 1.22464 197.999 1.66667C197.999 2.10869 197.45 2.53262 196.473 2.84518C195.496 3.15774 194.171 3.33333 192.789 3.33333H5.21051C3.8286 3.33333 2.50328 3.15774 1.52612 2.84518C0.548963 2.53262 0 2.10869 0 1.66667Z" fill="black"/>
</svg>
