<svg width="118" height="10" viewBox="0 0 118 10" fill="none" xmlns="http://www.w3.org/2000/svg">
<path opacity="0.2" fill-rule="evenodd" clip-rule="evenodd" d="M6.21057 5C6.21057 3.67392 7.19205 2.40215 8.9391 1.46447C10.6862 0.526784 13.0557 0 15.5264 0H108.684C111.155 3.95203e-08 113.524 0.526784 115.272 1.46447C117.019 2.40215 118 3.67392 118 5C118 6.32608 117.019 7.59785 115.272 8.53553C113.524 9.47322 111.155 10 108.684 10H15.5264C13.0557 10 10.6862 9.47322 8.9391 8.53553C7.19205 7.59785 6.21057 6.32608 6.21057 5Z" fill="black"/>
<path fill-rule="evenodd" clip-rule="evenodd" d="M0 1.66667C0 1.22464 0.327161 0.800715 0.90951 0.488154C1.49186 0.175593 2.2817 0 3.10526 0H114.895C115.718 0 116.508 0.175593 117.09 0.488154C117.673 0.800715 118 1.22464 118 1.66667C118 2.10869 117.673 2.53262 117.09 2.84518C116.508 3.15774 115.718 3.33333 114.895 3.33333H3.10526C2.2817 3.33333 1.49186 3.15774 0.90951 2.84518C0.327161 2.53262 0 2.10869 0 1.66667Z" fill="black"/>
</svg>
