<svg width="15" height="10" viewBox="0 0 15 10" fill="none" xmlns="http://www.w3.org/2000/svg">
<path opacity="0.2" fill-rule="evenodd" clip-rule="evenodd" d="M-154.579 5C-154.579 3.67392 -153.09 2.40215 -150.44 1.46447C-147.79 0.526784 -144.195 0 -140.448 0H0.868271C4.6162 3.95203e-08 8.21062 0.526784 10.8608 1.46447C13.511 2.40215 14.9998 3.67392 14.9998 5C14.9998 6.32608 13.511 7.59785 10.8608 8.53553C8.21062 9.47322 4.6162 10 0.868271 10H-140.448C-144.195 10 -147.79 9.47322 -150.44 8.53553C-153.09 7.59785 -154.579 6.32608 -154.579 5Z" fill="black"/>
<path fill-rule="evenodd" clip-rule="evenodd" d="M-164 1.66667C-164 1.22464 -163.504 0.800715 -162.621 0.488154C-161.737 0.175593 -160.539 0 -159.29 0H10.2892C11.5385 0 12.7367 0.175593 13.6201 0.488154C14.5035 0.800715 14.9998 1.22464 14.9998 1.66667C14.9998 2.10869 14.5035 2.53262 13.6201 2.84518C12.7367 3.15774 11.5385 3.33333 10.2892 3.33333H-159.29C-160.539 3.33333 -161.737 3.15774 -162.621 2.84518C-163.504 2.53262 -164 2.10869 -164 1.66667Z" fill="black"/>
</svg>
